<?xml version="1.0" encoding="UTF-8" standalone="no"?>
<!DOCTYPE svg PUBLIC "-//W3C//DTD SVG 1.1//EN"
 "http://www.w3.org/Graphics/SVG/1.1/DTD/svg11.dtd">
<!-- Generated by graphviz version 2.47.3 (20210619.1520)
 -->
<!-- Title: dependencies Pages: 1 -->
<svg width="1177pt" height="247pt"
 viewBox="0.00 0.00 1177.00 246.80" xmlns="http://www.w3.org/2000/svg" xmlns:xlink="http://www.w3.org/1999/xlink">
<g id="graph0" class="graph" transform="scale(1 1) rotate(0) translate(4 242.8)">
<title>dependencies</title>
<polygon fill="white" stroke="transparent" points="-4,4 -4,-242.8 1173,-242.8 1173,4 -4,4"/>
<text text-anchor="middle" x="584.5" y="-8.2" font-family="sans-serif" font-size="14.00">dependencies</text>
<g id="clust1" class="cluster">
<title>cluster_AppModule</title>
<polygon fill="none" stroke="black" stroke-dasharray="1,5" points="8,-32.8 8,-230.8 1161,-230.8 1161,-32.8 8,-32.8"/>
</g>
<g id="clust10" class="cluster">
<title>cluster_AppModule_imports</title>
<polygon fill="none" stroke="black" points="1009,-40.8 1009,-92.8 1153,-92.8 1153,-40.8 1009,-40.8"/>
</g>
<g id="clust12" class="cluster">
<title>cluster_AppModule_bootstrap</title>
<polygon fill="none" stroke="black" points="498,-170.8 498,-222.8 622,-222.8 622,-170.8 498,-170.8"/>
</g>
<g id="clust2" class="cluster">
<title>cluster_AppModule_declarations</title>
<polygon fill="none" stroke="black" points="16,-40.8 16,-92.8 1001,-92.8 1001,-40.8 16,-40.8"/>
</g>
<!-- AddStudentComponent -->
<g id="node1" class="node">
<title>AddStudentComponent</title>
<polygon fill="#ffffb3" stroke="black" points="993.22,-84.8 844.78,-84.8 844.78,-48.8 993.22,-48.8 993.22,-84.8"/>
<text text-anchor="middle" x="919" y="-62.6" font-family="Times,serif" font-size="14.00">AddStudentComponent</text>
</g>
<!-- AppModule -->
<g id="node8" class="node">
<title>AppModule</title>
<polygon fill="#8dd3c7" stroke="black" points="601.66,-149.8 598.66,-153.8 577.66,-153.8 574.66,-149.8 518.34,-149.8 518.34,-113.8 601.66,-113.8 601.66,-149.8"/>
<text text-anchor="middle" x="560" y="-127.6" font-family="Times,serif" font-size="14.00">AppModule</text>
</g>
<!-- AddStudentComponent&#45;&gt;AppModule -->
<g id="edge1" class="edge">
<title>AddStudentComponent&#45;&gt;AppModule</title>
<path fill="none" stroke="black" d="M919,-84.91C919,-104.14 919,-131.8 919,-131.8 919,-131.8 611.88,-131.8 611.88,-131.8"/>
<polygon fill="black" stroke="black" points="611.88,-128.3 601.88,-131.8 611.88,-135.3 611.88,-128.3"/>
</g>
<!-- AppComponent -->
<g id="node2" class="node">
<title>AppComponent</title>
<polygon fill="#ffffb3" stroke="black" points="826.94,-84.8 721.06,-84.8 721.06,-48.8 826.94,-48.8 826.94,-84.8"/>
<text text-anchor="middle" x="774" y="-62.6" font-family="Times,serif" font-size="14.00">AppComponent</text>
</g>
<!-- AppComponent&#45;&gt;AppModule -->
<g id="edge2" class="edge">
<title>AppComponent&#45;&gt;AppModule</title>
<path fill="none" stroke="black" d="M774,-84.83C774,-101.2 774,-122.8 774,-122.8 774,-122.8 611.77,-122.8 611.77,-122.8"/>
<polygon fill="black" stroke="black" points="611.77,-119.3 601.77,-122.8 611.77,-126.3 611.77,-119.3"/>
</g>
<!-- CharactersComponent -->
<g id="node3" class="node">
<title>CharactersComponent</title>
<polygon fill="#ffffb3" stroke="black" points="703.68,-84.8 562.32,-84.8 562.32,-48.8 703.68,-48.8 703.68,-84.8"/>
<text text-anchor="middle" x="633" y="-62.6" font-family="Times,serif" font-size="14.00">CharactersComponent</text>
</g>
<!-- CharactersComponent&#45;&gt;AppModule -->
<g id="edge3" class="edge">
<title>CharactersComponent&#45;&gt;AppModule</title>
<path fill="none" stroke="black" d="M582.12,-84.91C582.12,-84.91 582.12,-103.79 582.12,-103.79"/>
<polygon fill="black" stroke="black" points="578.62,-103.79 582.12,-113.79 585.62,-103.79 578.62,-103.79"/>
</g>
<!-- HomeComponent -->
<g id="node4" class="node">
<title>HomeComponent</title>
<polygon fill="#ffffb3" stroke="black" points="544.55,-84.8 429.45,-84.8 429.45,-48.8 544.55,-48.8 544.55,-84.8"/>
<text text-anchor="middle" x="487" y="-62.6" font-family="Times,serif" font-size="14.00">HomeComponent</text>
</g>
<!-- HomeComponent&#45;&gt;AppModule -->
<g id="edge4" class="edge">
<title>HomeComponent&#45;&gt;AppModule</title>
<path fill="none" stroke="black" d="M531.47,-84.91C531.47,-84.91 531.47,-103.79 531.47,-103.79"/>
<polygon fill="black" stroke="black" points="527.97,-103.79 531.47,-113.79 534.97,-103.79 527.97,-103.79"/>
</g>
<!-- StaffComponent -->
<g id="node5" class="node">
<title>StaffComponent</title>
<polygon fill="#ffffb3" stroke="black" points="411.04,-84.8 302.96,-84.8 302.96,-48.8 411.04,-48.8 411.04,-84.8"/>
<text text-anchor="middle" x="357" y="-62.6" font-family="Times,serif" font-size="14.00">StaffComponent</text>
</g>
<!-- StaffComponent&#45;&gt;AppModule -->
<g id="edge5" class="edge">
<title>StaffComponent&#45;&gt;AppModule</title>
<path fill="none" stroke="black" d="M357,-84.83C357,-101.2 357,-122.8 357,-122.8 357,-122.8 507.94,-122.8 507.94,-122.8"/>
<polygon fill="black" stroke="black" points="507.94,-126.3 517.94,-122.8 507.94,-119.3 507.94,-126.3"/>
</g>
<!-- StudentsComponent -->
<g id="node6" class="node">
<title>StudentsComponent</title>
<polygon fill="#ffffb3" stroke="black" points="284.56,-84.8 155.44,-84.8 155.44,-48.8 284.56,-48.8 284.56,-84.8"/>
<text text-anchor="middle" x="220" y="-62.6" font-family="Times,serif" font-size="14.00">StudentsComponent</text>
</g>
<!-- StudentsComponent&#45;&gt;AppModule -->
<g id="edge6" class="edge">
<title>StudentsComponent&#45;&gt;AppModule</title>
<path fill="none" stroke="black" d="M220,-84.91C220,-104.14 220,-131.8 220,-131.8 220,-131.8 508.31,-131.8 508.31,-131.8"/>
<polygon fill="black" stroke="black" points="508.31,-135.3 518.31,-131.8 508.31,-128.3 508.31,-135.3"/>
</g>
<!-- TableComponent -->
<g id="node7" class="node">
<title>TableComponent</title>
<polygon fill="#ffffb3" stroke="black" points="137.7,-84.8 24.3,-84.8 24.3,-48.8 137.7,-48.8 137.7,-84.8"/>
<text text-anchor="middle" x="81" y="-62.6" font-family="Times,serif" font-size="14.00">TableComponent</text>
</g>
<!-- TableComponent&#45;&gt;AppModule -->
<g id="edge7" class="edge">
<title>TableComponent&#45;&gt;AppModule</title>
<path fill="none" stroke="black" d="M81,-85.09C81,-107.01 81,-140.8 81,-140.8 81,-140.8 508.33,-140.8 508.33,-140.8"/>
<polygon fill="black" stroke="black" points="508.33,-144.3 518.33,-140.8 508.33,-137.3 508.33,-144.3"/>
</g>
<!-- AppComponent  -->
<g id="node10" class="node">
<title>AppComponent </title>
<polygon fill="#80b1d3" stroke="black" points="614.44,-214.8 505.56,-214.8 505.56,-178.8 614.44,-178.8 614.44,-214.8"/>
<text text-anchor="middle" x="560" y="-192.6" font-family="Times,serif" font-size="14.00">AppComponent </text>
</g>
<!-- AppModule&#45;&gt;AppComponent  -->
<g id="edge9" class="edge">
<title>AppModule&#45;&gt;AppComponent </title>
<path fill="none" stroke="black" stroke-dasharray="1,5" d="M560,-149.91C560,-149.91 560,-168.79 560,-168.79"/>
<polygon fill="black" stroke="black" points="556.5,-168.79 560,-178.79 563.5,-168.79 556.5,-168.79"/>
</g>
<!-- AppRoutingModule -->
<g id="node9" class="node">
<title>AppRoutingModule</title>
<polygon fill="#8dd3c7" stroke="black" points="1145.27,-84.8 1142.27,-88.8 1121.27,-88.8 1118.27,-84.8 1016.73,-84.8 1016.73,-48.8 1145.27,-48.8 1145.27,-84.8"/>
<text text-anchor="middle" x="1081" y="-62.6" font-family="Times,serif" font-size="14.00">AppRoutingModule</text>
</g>
<!-- AppRoutingModule&#45;&gt;AppModule -->
<g id="edge8" class="edge">
<title>AppRoutingModule&#45;&gt;AppModule</title>
<path fill="none" stroke="black" d="M1081,-85.09C1081,-107.01 1081,-140.8 1081,-140.8 1081,-140.8 611.75,-140.8 611.75,-140.8"/>
<polygon fill="black" stroke="black" points="611.75,-137.3 601.75,-140.8 611.75,-144.3 611.75,-137.3"/>
</g>
</g>
</svg>
