<?xml version="1.0" encoding="UTF-8" standalone="no"?>
<!DOCTYPE svg PUBLIC "-//W3C//DTD SVG 1.1//EN"
 "http://www.w3.org/Graphics/SVG/1.1/DTD/svg11.dtd">
<!-- Generated by graphviz version 2.47.3 (20210619.1520)
 -->
<!-- Title: dependencies Pages: 1 -->
<svg width="1177pt" height="247pt"
 viewBox="0.00 0.00 1177.00 246.80" xmlns="http://www.w3.org/2000/svg" xmlns:xlink="http://www.w3.org/1999/xlink">
<g id="graph0" class="graph" transform="scale(1 1) rotate(0) translate(4 242.8)">
<title>dependencies</title>
<polygon fill="white" stroke="transparent" points="-4,4 -4,-242.8 1173,-242.8 1173,4 -4,4"/>
<text text-anchor="middle" x="584.5" y="-8.2" font-family="sans-serif" font-size="14.00">dependencies</text>
<g id="clust1" class="cluster">
<title>cluster_AppModule</title>
<polygon fill="none" stroke="black" stroke-dasharray="1,5" points="8,-32.8 8,-230.8 1161,-230.8 1161,-32.8 8,-32.8"/>
</g>
<g id="clust2" class="cluster">
<title>cluster_AppModule_declarations</title>
<polygon fill="none" stroke="black" points="168,-40.8 168,-92.8 1153,-92.8 1153,-40.8 168,-40.8"/>
</g>
<g id="clust10" class="cluster">
<title>cluster_AppModule_imports</title>
<polygon fill="none" stroke="black" points="16,-40.8 16,-92.8 160,-92.8 160,-40.8 16,-40.8"/>
</g>
<g id="clust12" class="cluster">
<title>cluster_AppModule_bootstrap</title>
<polygon fill="none" stroke="black" points="512,-170.8 512,-222.8 636,-222.8 636,-170.8 512,-170.8"/>
</g>
<!-- AddStudentComponent -->
<g id="node1" class="node">
<title>AddStudentComponent</title>
<polygon fill="#ffffb3" stroke="black" points="1145.22,-84.8 996.78,-84.8 996.78,-48.8 1145.22,-48.8 1145.22,-84.8"/>
<text text-anchor="middle" x="1071" y="-62.6" font-family="Times,serif" font-size="14.00">AddStudentComponent</text>
</g>
<!-- AppModule -->
<g id="node8" class="node">
<title>AppModule</title>
<polygon fill="#8dd3c7" stroke="black" points="615.66,-149.8 612.66,-153.8 591.66,-153.8 588.66,-149.8 532.34,-149.8 532.34,-113.8 615.66,-113.8 615.66,-149.8"/>
<text text-anchor="middle" x="574" y="-127.6" font-family="Times,serif" font-size="14.00">AppModule</text>
</g>
<!-- AddStudentComponent&#45;&gt;AppModule -->
<g id="edge1" class="edge">
<title>AddStudentComponent&#45;&gt;AppModule</title>
<path fill="none" stroke="black" d="M1071,-85.09C1071,-107.01 1071,-140.8 1071,-140.8 1071,-140.8 625.95,-140.8 625.95,-140.8"/>
<polygon fill="black" stroke="black" points="625.95,-137.3 615.95,-140.8 625.95,-144.3 625.95,-137.3"/>
</g>
<!-- AppComponent -->
<g id="node2" class="node">
<title>AppComponent</title>
<polygon fill="#ffffb3" stroke="black" points="978.94,-84.8 873.06,-84.8 873.06,-48.8 978.94,-48.8 978.94,-84.8"/>
<text text-anchor="middle" x="926" y="-62.6" font-family="Times,serif" font-size="14.00">AppComponent</text>
</g>
<!-- AppComponent&#45;&gt;AppModule -->
<g id="edge2" class="edge">
<title>AppComponent&#45;&gt;AppModule</title>
<path fill="none" stroke="black" d="M926,-84.91C926,-104.14 926,-131.8 926,-131.8 926,-131.8 625.76,-131.8 625.76,-131.8"/>
<polygon fill="black" stroke="black" points="625.76,-128.3 615.76,-131.8 625.76,-135.3 625.76,-128.3"/>
</g>
<!-- CharactersComponent -->
<g id="node3" class="node">
<title>CharactersComponent</title>
<polygon fill="#ffffb3" stroke="black" points="855.68,-84.8 714.32,-84.8 714.32,-48.8 855.68,-48.8 855.68,-84.8"/>
<text text-anchor="middle" x="785" y="-62.6" font-family="Times,serif" font-size="14.00">CharactersComponent</text>
</g>
<!-- CharactersComponent&#45;&gt;AppModule -->
<g id="edge3" class="edge">
<title>CharactersComponent&#45;&gt;AppModule</title>
<path fill="none" stroke="black" d="M785,-84.83C785,-101.2 785,-122.8 785,-122.8 785,-122.8 625.69,-122.8 625.69,-122.8"/>
<polygon fill="black" stroke="black" points="625.69,-119.3 615.69,-122.8 625.69,-126.3 625.69,-119.3"/>
</g>
<!-- HomeComponent -->
<g id="node4" class="node">
<title>HomeComponent</title>
<polygon fill="#ffffb3" stroke="black" points="696.55,-84.8 581.45,-84.8 581.45,-48.8 696.55,-48.8 696.55,-84.8"/>
<text text-anchor="middle" x="639" y="-62.6" font-family="Times,serif" font-size="14.00">HomeComponent</text>
</g>
<!-- HomeComponent&#45;&gt;AppModule -->
<g id="edge4" class="edge">
<title>HomeComponent&#45;&gt;AppModule</title>
<path fill="none" stroke="black" d="M598.53,-84.91C598.53,-84.91 598.53,-103.79 598.53,-103.79"/>
<polygon fill="black" stroke="black" points="595.03,-103.79 598.53,-113.79 602.03,-103.79 595.03,-103.79"/>
</g>
<!-- StaffComponent -->
<g id="node5" class="node">
<title>StaffComponent</title>
<polygon fill="#ffffb3" stroke="black" points="563.04,-84.8 454.96,-84.8 454.96,-48.8 563.04,-48.8 563.04,-84.8"/>
<text text-anchor="middle" x="509" y="-62.6" font-family="Times,serif" font-size="14.00">StaffComponent</text>
</g>
<!-- StaffComponent&#45;&gt;AppModule -->
<g id="edge5" class="edge">
<title>StaffComponent&#45;&gt;AppModule</title>
<path fill="none" stroke="black" d="M547.72,-84.91C547.72,-84.91 547.72,-103.79 547.72,-103.79"/>
<polygon fill="black" stroke="black" points="544.22,-103.79 547.72,-113.79 551.22,-103.79 544.22,-103.79"/>
</g>
<!-- StudentsComponent -->
<g id="node6" class="node">
<title>StudentsComponent</title>
<polygon fill="#ffffb3" stroke="black" points="436.56,-84.8 307.44,-84.8 307.44,-48.8 436.56,-48.8 436.56,-84.8"/>
<text text-anchor="middle" x="372" y="-62.6" font-family="Times,serif" font-size="14.00">StudentsComponent</text>
</g>
<!-- StudentsComponent&#45;&gt;AppModule -->
<g id="edge6" class="edge">
<title>StudentsComponent&#45;&gt;AppModule</title>
<path fill="none" stroke="black" d="M372,-84.83C372,-101.2 372,-122.8 372,-122.8 372,-122.8 522.15,-122.8 522.15,-122.8"/>
<polygon fill="black" stroke="black" points="522.15,-126.3 532.15,-122.8 522.15,-119.3 522.15,-126.3"/>
</g>
<!-- TableComponent -->
<g id="node7" class="node">
<title>TableComponent</title>
<polygon fill="#ffffb3" stroke="black" points="289.7,-84.8 176.3,-84.8 176.3,-48.8 289.7,-48.8 289.7,-84.8"/>
<text text-anchor="middle" x="233" y="-62.6" font-family="Times,serif" font-size="14.00">TableComponent</text>
</g>
<!-- TableComponent&#45;&gt;AppModule -->
<g id="edge7" class="edge">
<title>TableComponent&#45;&gt;AppModule</title>
<path fill="none" stroke="black" d="M233,-84.91C233,-104.14 233,-131.8 233,-131.8 233,-131.8 522.19,-131.8 522.19,-131.8"/>
<polygon fill="black" stroke="black" points="522.19,-135.3 532.19,-131.8 522.19,-128.3 522.19,-135.3"/>
</g>
<!-- AppComponent  -->
<g id="node10" class="node">
<title>AppComponent </title>
<polygon fill="#80b1d3" stroke="black" points="628.44,-214.8 519.56,-214.8 519.56,-178.8 628.44,-178.8 628.44,-214.8"/>
<text text-anchor="middle" x="574" y="-192.6" font-family="Times,serif" font-size="14.00">AppComponent </text>
</g>
<!-- AppModule&#45;&gt;AppComponent  -->
<g id="edge9" class="edge">
<title>AppModule&#45;&gt;AppComponent </title>
<path fill="none" stroke="black" stroke-dasharray="1,5" d="M574,-149.91C574,-149.91 574,-168.79 574,-168.79"/>
<polygon fill="black" stroke="black" points="570.5,-168.79 574,-178.79 577.5,-168.79 570.5,-168.79"/>
</g>
<!-- AppRoutingModule -->
<g id="node9" class="node">
<title>AppRoutingModule</title>
<polygon fill="#8dd3c7" stroke="black" points="152.27,-84.8 149.27,-88.8 128.27,-88.8 125.27,-84.8 23.73,-84.8 23.73,-48.8 152.27,-48.8 152.27,-84.8"/>
<text text-anchor="middle" x="88" y="-62.6" font-family="Times,serif" font-size="14.00">AppRoutingModule</text>
</g>
<!-- AppRoutingModule&#45;&gt;AppModule -->
<g id="edge8" class="edge">
<title>AppRoutingModule&#45;&gt;AppModule</title>
<path fill="none" stroke="black" d="M88,-85.09C88,-107.01 88,-140.8 88,-140.8 88,-140.8 522.14,-140.8 522.14,-140.8"/>
<polygon fill="black" stroke="black" points="522.14,-144.3 532.14,-140.8 522.14,-137.3 522.14,-144.3"/>
</g>
</g>
</svg>
